<svg viewBox="0 0 512 512" xmlns="http://www.w3.org/2000/svg"><path d="M78.6 30.6c-4 4.5-6.3 11-6.3 19.3V462c0 8.3 2.3 14.8 6.3 19.3l2.2 2.2L306.4 258v-4.4L80.8 28.3l-2.2 2.3z" fill="#00aced"/><path d="M381.5 333.3l-75.1-75.1V254l75.1-75.1 2.2 1.3 89 50.6c25.4 14.4 25.4 38 0 52.4l-89 50.6-2.2-0.5z" fill="#ffb900"/><path d="M383.7 332.1l-77.3-77.3-228 228c8.3 8.8 22 10 37.1 1.4l268.2-152.1z" fill="#e53935"/><path d="M383.7 179.9L115.5 27.8C100.4 19.2 86.8 20.4 78.5 29.1l228 228 77.2-77.2z" fill="#43a047"/></svg>
